# xmcd
#
# Track frame offsets:
#	150
#	29626
#	49809
#	79162
#	115463
#	130674
#	151405
#	175993
#	189285
#
# Disc length: 3126 seconds
#
# Revision: 1
# Processed by: cddbd v1.5.2PL0 Copyright (c) Steve Scherf et al.
# Submitted via: audiograbber 1.83.01
#
DISCID=740c3409
DTITLE=Norman Guy and Paddy Boy - Norman Guy and Paddy Boy
DYEAR=2008
DGENRE=Blues
TTITLE0=Six Strings of Steel
TTITLE1=Just BAd
TTITLE2=Pain and Disgrace
TTITLE3=My Dog don´t Bark Nomore
TTITLE4=Route 66
TTITLE5=Gunslinger
TTITLE6=Time Slipped away
TTITLE7=The Loop
TTITLE8=Kickback Blues
EXTD=
EXTT0=
EXTT1=
EXTT2=
EXTT3=
EXTT4=
EXTT5=
EXTT6=
EXTT7=
EXTT8=
PLAYORDER=
